Release Name: In.the.Land.of.Blood.and.Honey.2011.VODRip-PA



Release Date: 28/02/2012





IMdb: http://www.imdb.com/title/tt1714209/



Language: English



Type: VODRip



Format: XViD avi



Size: 816MB



Source: PA's Own -- many thanks m8 ...you're a legend 



========================================================



Format : AVI

Format/Info : Audio Video Interleave

File size : 797 MiB

Duration : 2h 7mn

Overall bit rate : 874 Kbps

Writing application : VirtualDubMod 1.5.10.2 (build 2542/release)

Writing library : VirtualDubMod build 2542/release



Video

ID : 0

Format : MPEG-4 Visual

Format profile : Advanced Simple@L5

Format settings, BVOP : 1

Format settings, QPel : No

Format settings, GMC : No warppoints

Format settings, Matrix : Default (H.263)

Muxing mode : Packed bitstream

Codec ID : XVID

Codec ID/Hint : XviD

Duration : 2h 7mn

Bit rate : 737 Kbps

Width : 704 pixels

Height : 296 pixels

Display aspect ratio : 2.40:1

Frame rate : 23.976 fps

Color space : YUV

Chroma subsampling : 4:2:0

Bit depth : 8 bits

Scan type : Progressive

Compression mode : Lossy

Bits/(Pixel*Frame) : 0.147

Stream size : 672 MiB (84%)

Writing library : XviD 62



Audio

ID : 1

Format : MPEG Audio

Format version : Version 1

Format profile : Layer 3

Mode : Joint stereo

Mode extension : MS Stereo

Codec ID : 55

Codec ID/Hint : MP3

Duration : 2h 7mn

Bit rate mode : Constant

Bit rate : 128 Kbps

Channel(s) : 2 channels

Sampling rate : 44.1 KHz

Compression mode : Lossy

Stream size : 117 MiB (15%)

Alignment : Split accross interleaves

Interleave, duration : 42 ms (1.00 video frame)

Interleave, preload duration : 500 ms

Writing library : LAME3.98.2



========================================================





PLOT:

Set against the backdrop of the Bosnian War that tore the Balkan region apart in the 1990s, In the Land of 



Blood and Honey tells the story of Danijel and Ajla, two people from different sides of a brutal ethnic conflict. 



Danijel, a soldier fighting for the Serbs, and Ajla, a Bosnian held captive in the camp he oversees, knew each other 



before the war, and could have found love with each other. But as the armed conflict takes hold of their lives, their 



relationship grows darker...



NOTES:

First decent quality rip of this 'On Demand' movie from PA's own source for y'all. 

...'In the Land of Blood and Honey' is written and directed by Angelina Jolie.

[This rls is English language audio].



As always - Respect to all the loyal PA crew .....you know who u are 





LOOKING FOR:

...Anything 'Fresh as F*ck'



Off Internal so Enjoy All.......!! 
